<svg width="373" height="253" viewBox="0 0 373 253" fill="none" xmlns="http://www.w3.org/2000/svg">
<path opacity="0.1" d="M12.7165 241.252V246.333L2.54248 245.214V241.252H12.7165Z" fill="white"/>
<path d="M20.9375 171.945L79.5719 162.358V218.138L23.8616 215.207L20.9375 171.945Z" fill="#FECB06"/>
<path opacity="0.05" d="M20.9375 171.945L79.5719 162.358V218.138L23.8616 215.207L20.9375 171.945Z" fill="black"/>
<path d="M79.5742 162.358L149.377 167.645L145.514 216.187L79.5742 218.138V162.358Z" fill="#FECB06"/>
<path opacity="0.1" d="M79.5742 162.358L149.377 167.645L145.514 216.187L79.5742 218.138V162.358Z" fill="black"/>
<path d="M100.972 145.624L79.5742 162.648L149.172 167.935L160.546 150.513L100.972 145.624Z" fill="#FECB06"/>
<path d="M0 153.49L52.595 147.019L79.5753 162.514L21.1533 172.12L0 153.49Z" fill="#FECB06"/>
<path d="M92.1364 176.999V253L64.7808 250.179L52.8815 248.959L49.2563 248.577L37.3645 247.35L20.9375 245.657V172.119L79.327 176.115L92.1364 176.999Z" fill="#FECB06"/>
<path d="M149.376 167.936V241.965L127.447 246.192L116.782 248.248L92.1377 253V177.091L149.376 167.936Z" fill="#FECB06"/>
<path opacity="0.05" d="M149.376 167.936V241.965L127.447 246.192L116.782 248.248L92.1377 253V177.091L149.376 167.936Z" fill="black"/>
<path d="M0 187.891L21.0977 172.119L92.1398 176.93L81.6818 194.431L0 187.891Z" fill="#FECB06"/>
<path opacity="0.1" d="M0 187.891L21.0977 172.119L92.1398 176.93L81.6818 194.431L0 187.891Z" fill="white"/>
<path d="M149.114 167.936L92.1377 177.297L110.682 194.431L171.713 183.871L149.114 167.936Z" fill="#FECB06"/>
<path opacity="0.1" d="M149.114 167.936L92.1377 177.297L110.682 194.431L171.713 183.871L149.114 167.936Z" fill="white"/>
<path opacity="0.1" d="M127.041 245.391L117.269 247.423V237.37L126.422 234.872L127.041 245.391Z" fill="white"/>
<path opacity="0.1" d="M139.604 243.996L129.832 246.028V230.398L138.986 227.899L139.604 243.996Z" fill="white"/>
<path fill-rule="evenodd" clip-rule="evenodd" d="M44.2636 210.776C43.058 214.226 39.3219 216.741 34.8999 216.741C32.9579 216.741 31.1481 216.256 29.627 215.419C30.5625 218.601 33.5072 220.924 36.9951 220.924C41.2357 220.924 44.6734 217.49 44.6734 213.254C44.6734 212.387 44.5293 211.553 44.2636 210.776Z" fill="#F1F2F3"/>
<mask id="mask0_23139_34924" style="mask-type:alpha" maskUnits="userSpaceOnUse" x="29" y="210" width="16" height="11">
<path fill-rule="evenodd" clip-rule="evenodd" d="M44.2636 210.776C43.058 214.226 39.3219 216.741 34.8999 216.741C32.9579 216.741 31.1481 216.256 29.627 215.419C30.5625 218.601 33.5072 220.924 36.9951 220.924C41.2357 220.924 44.6734 217.49 44.6734 213.254C44.6734 212.387 44.5293 211.553 44.2636 210.776Z" fill="white"/>
</mask>
<g mask="url(#mask0_23139_34924)">
<ellipse cx="39.0865" cy="219.532" rx="2.79212" ry="2.78899" fill="#1D1F22"/>
<path d="M30.2437 219.365L30.1283 219.365L34.5081 221.228C35.1273 221.492 35.789 221.627 36.4539 221.627L38.5457 221.627C40.4444 221.627 42.1472 220.526 42.931 218.792L43.0274 218.579L43.0274 218.314C43.0274 218.186 42.9338 218.077 42.8095 218.058C42.0454 217.943 41.2703 218.011 40.5458 218.254L39.8753 218.479L37.4479 219.086C36.7129 219.269 35.9417 219.277 35.1938 219.109L34.0349 218.849C33.2542 218.673 32.4456 218.747 31.7211 219.06C31.2562 219.261 30.7539 219.364 30.2437 219.365Z" fill="#4D9AF5"/>
</g>
<path fill-rule="evenodd" clip-rule="evenodd" d="M63.6954 212.042C64.5563 215.641 68.1007 218.522 72.5602 218.894C74.4313 219.051 76.2171 218.745 77.7666 218.086C76.731 221.099 73.87 223.264 70.5027 223.264C66.2621 223.264 62.8244 219.83 62.8244 215.594C62.8244 214.312 63.139 213.104 63.6954 212.042Z" fill="#F1F2F3"/>
<mask id="mask1_23139_34924" style="mask-type:alpha" maskUnits="userSpaceOnUse" x="62" y="211" width="17" height="13">
<path fill-rule="evenodd" clip-rule="evenodd" d="M64.2293 211.164C64.4645 215.574 68.1194 219.078 72.5937 219.078C74.6703 219.078 76.5705 218.323 78.0342 217.073C77.3434 220.601 74.2323 223.262 70.4989 223.262C66.2583 223.262 62.8206 219.828 62.8206 215.592C62.8206 213.943 63.3421 212.415 64.2293 211.164Z" fill="white"/>
</mask>
<g mask="url(#mask1_23139_34924)">
<ellipse rx="2.79212" ry="2.78899" transform="matrix(-1 0 0 1 68.4071 221.867)" fill="#1D1F22"/>
<path d="M74.2656 221.868L75.3291 221.912C76.8116 221.972 77.9824 223.191 77.9824 224.675H70.6391C69.7505 224.675 68.8779 224.438 68.1112 223.989L62.0317 220.426C62.0317 219.164 63.3953 218.372 64.4917 218.998L67.4067 220.662C67.9494 220.971 68.5634 221.134 69.1882 221.134H70.8565C71.4666 221.134 72.0715 221.246 72.6415 221.464L73.0401 221.616C73.4322 221.766 73.8462 221.851 74.2656 221.868Z" fill="#4D9AF5"/>
</g>
<path fill-rule="evenodd" clip-rule="evenodd" d="M62.7476 234.043C60.5909 230.085 56.6229 227.333 51.9574 227.088C47.2847 226.842 43.0429 229.171 40.4826 232.89C42.3799 228.438 46.911 225.426 52.0287 225.695C57.1397 225.964 61.3243 229.425 62.7476 234.043Z" fill="#43464E"/>
<path fill-rule="evenodd" clip-rule="evenodd" d="M61.6861 235.136C61.8541 234.598 62.2701 234.163 62.8346 234.012C63.4125 233.857 64.005 234.039 64.4215 234.439C64.0696 233.932 63.4246 233.674 62.7936 233.843C62.1749 234.008 61.7501 234.536 61.6861 235.136Z" fill="#F1F2F3"/>
<path fill-rule="evenodd" clip-rule="evenodd" d="M39.0989 232.928C39.6005 232.661 40.2087 232.644 40.7187 232.938C41.2361 233.237 41.5266 233.782 41.538 234.359C41.6491 233.751 41.3757 233.113 40.8096 232.786C40.2503 232.464 39.5698 232.541 39.0989 232.928Z" fill="#F1F2F3"/>
<path d="M203.737 69.0786L203.74 69.0814C203.745 69.0908 203.745 69.0974 203.75 69.1068C203.787 69.2081 203.853 69.2889 203.933 69.351C203.994 69.399 204.071 69.4349 204.154 69.4567C205.788 69.8441 207.511 69.8558 209.224 69.5356C209.237 69.5338 209.245 69.5394 209.254 69.5348C209.267 69.5329 209.28 69.5245 209.293 69.5227C212.649 68.8821 215.966 66.9674 218.506 64.0351C222.428 59.516 221.644 56.0366 219.986 51.7034L222.916 48.3232C223.137 48.0689 223.116 47.6919 222.87 47.4765C222.604 47.2404 222.248 47.2937 222.027 47.5481L219.097 50.9283C214.588 49.8808 211.039 49.5851 207.114 54.1079C203.256 58.5447 201.932 64.4158 203.737 69.0783L203.737 69.0786ZM204.158 64.6503L207.183 64.6462L204.565 67.6627C204.296 66.6973 204.162 65.6863 204.158 64.6503L204.158 64.6503ZM205.004 59.9027L211.308 59.8953L208.231 63.4429L204.19 63.4496C204.303 62.2706 204.574 61.0761 205.004 59.9027L205.004 59.9027ZM207.781 55.1608L215.425 55.149L212.35 58.6928L205.53 58.7024C206.113 57.4676 206.859 56.2699 207.781 55.1608L207.781 55.1608ZM214.174 66.2358L213.24 59.4683L216.317 55.9207L217.369 63.5117C216.4 64.5841 215.319 65.492 214.174 66.2358L214.174 66.2358ZM209.673 68.2266L209.117 64.2155L212.194 60.6679L213.06 66.9253C211.965 67.5154 210.823 67.9555 209.673 68.2267L209.673 68.2266ZM205.455 68.4381L208.075 65.4178L208.492 68.4256C207.467 68.566 206.45 68.5685 205.455 68.4381L205.455 68.4381ZM218.401 62.2609L217.358 54.7187L219.082 52.7307C220.353 56.175 220.833 58.9138 218.401 62.2609L218.401 62.2609ZM218.193 51.9621L216.47 53.9501L208.873 53.9621C211.854 51.078 214.623 51.1762 218.193 51.9622L218.193 51.9621Z" fill="#FECB06"/>
<path d="M207.761 100.441L207.758 100.444C207.748 100.448 207.741 100.448 207.732 100.452C207.628 100.484 207.544 100.545 207.477 100.621C207.426 100.68 207.385 100.754 207.359 100.835C206.879 102.443 206.769 104.161 206.991 105.887C206.992 105.901 206.986 105.908 206.99 105.917C206.991 105.93 206.999 105.943 207 105.956C207.449 109.34 209.174 112.757 211.96 115.457C216.254 119.626 219.776 119.042 224.201 117.635L227.413 120.75C227.655 120.985 228.033 120.985 228.262 120.752C228.513 120.501 228.48 120.142 228.238 119.907L225.027 116.793C226.331 112.356 226.828 108.833 222.531 104.662C218.317 100.562 212.524 98.907 207.761 100.441L207.761 100.441ZM212.163 101.114L211.994 104.13L209.129 101.348C210.109 101.135 211.127 101.058 212.163 101.114L212.163 101.114ZM216.86 102.227L216.508 108.515L213.137 105.243L213.361 101.213C214.533 101.393 215.711 101.732 216.86 102.227L216.86 102.227ZM221.441 105.267L221.017 112.89L217.651 109.622L218.029 102.821C219.23 103.472 220.385 104.284 221.441 105.267L221.441 105.267ZM210.007 111.012L216.825 110.465L220.195 113.736L212.548 114.353C211.532 113.325 210.686 112.196 210.007 111.012L210.007 111.012ZM208.274 106.409L212.315 106.083L215.685 109.354L209.382 109.861C208.854 108.735 208.479 107.572 208.274 106.409L208.274 106.409ZM208.303 102.191L211.172 104.976L208.142 105.22C208.061 104.19 208.116 103.176 208.303 102.191L208.303 102.191ZM213.74 115.454L221.337 114.843L223.226 116.675C219.711 117.747 216.946 118.069 213.74 115.454L213.74 115.454ZM224.045 115.832L222.156 114.001L222.577 106.424C225.29 109.561 225.034 112.317 224.045 115.832L224.045 115.832Z" fill="#FECB06"/>
<path d="M265.239 75.4035L265.239 75.4081C265.233 75.4166 265.227 75.4206 265.222 75.4291C265.154 75.5133 265.117 75.6107 265.105 75.711C265.095 75.7886 265.103 75.8731 265.127 75.9548C265.628 77.5564 266.498 79.042 267.648 80.3498C267.657 80.3602 267.655 80.3693 267.664 80.375C267.672 80.3853 267.686 80.3917 267.694 80.402C269.96 82.9575 273.302 84.828 277.123 85.5121C283.015 86.5723 285.61 84.1224 288.493 80.4852L292.899 81.2752C293.231 81.3355 293.544 81.1246 293.604 80.8031C293.671 80.4547 293.444 80.1758 293.112 80.1156L288.706 79.3256C287.305 74.9184 285.747 71.7195 279.85 70.6587C274.061 69.6115 268.331 71.4728 265.239 75.4036L265.239 75.4035ZM269.266 73.5044L270.814 76.0994L266.881 75.392C267.575 74.6682 268.376 74.0367 269.266 73.5043L269.266 73.5044ZM273.784 71.8059L277.01 77.2164L272.385 76.385L270.316 72.918C271.388 72.4132 272.555 72.0362 273.784 71.806L273.784 71.8059ZM279.284 71.7694L283.198 78.3276L278.577 77.4967L275.086 71.6452C276.447 71.5149 277.859 71.544 279.284 71.7695L279.284 71.7694ZM273.016 82.9157L278.364 78.6568L282.989 79.4883L276.993 84.2682C275.575 83.9834 274.241 83.5193 273.017 82.9158L273.016 82.9157ZM269.004 80.0665L272.173 77.5404L276.798 78.3719L271.854 82.3109C270.787 81.6716 269.825 80.9159 269.004 80.0667L269.004 80.0665ZM266.668 76.5521L270.606 77.2601L268.229 79.1536C267.585 78.3451 267.064 77.4731 266.668 76.5522L266.668 76.5521ZM278.596 84.516L284.556 79.7685L287.147 80.2331C284.831 83.0842 282.719 84.895 278.596 84.5159L278.596 84.516ZM287.354 79.0775L284.763 78.6129L280.873 72.0948C284.878 73.182 286.208 75.6106 287.354 79.0775L287.354 79.0775Z" fill="#FECB06"/>
<path opacity="0.3" d="M149.666 90.7518C149.656 90.7562 149.642 90.7599 149.634 90.7656C149.631 90.7683 149.629 90.767 149.626 90.7697C149.623 90.7723 149.622 90.7744 149.62 90.7749C149.613 90.7823 149.606 90.7897 149.597 90.7976C149.588 90.8072 149.577 90.8155 149.571 90.8263C149.567 90.8328 149.565 90.8371 149.56 90.8419C149.559 90.8441 149.556 90.845 149.556 90.8467C148.965 91.9379 148.627 93.1543 148.526 94.4185C148.525 94.4262 148.521 94.4327 148.521 94.44C148.52 94.4494 148.523 94.4596 148.524 94.4703C148.338 96.9544 149.076 99.619 150.692 101.906C152.929 105.068 156.072 106.402 160.034 105.881L162.01 108.679C162.082 108.78 162.225 108.806 162.328 108.734C162.409 108.678 162.442 108.58 162.419 108.492C162.412 108.466 162.4 108.444 162.385 108.421L160.407 105.625C161.645 103.28 161.975 100.99 161.383 98.7853C161.09 97.6938 160.574 96.6239 159.835 95.5773C157.383 92.1102 153.414 90.2097 149.726 90.7338C149.722 90.7347 149.721 90.7369 149.717 90.7361L149.7 90.7407C149.688 90.7401 149.677 90.7467 149.666 90.7517L149.666 90.7518ZM153.154 91.3759L152.375 94.2612L150.167 91.1387C151.159 91.0445 152.168 91.126 153.154 91.3759L153.154 91.3759ZM149.793 91.3991L152.001 94.5216L148.996 94.2583C149.096 93.2529 149.364 92.2883 149.793 91.3991L149.793 91.3991ZM148.963 94.708L152.341 95.0045L154.668 98.2938L149.286 97.8229C149.018 96.7815 148.909 95.7299 148.963 94.708L148.963 94.708ZM159.329 95.8129L157.71 101.807L155.383 98.518L156.834 93.1459C157.783 93.8487 158.646 94.7163 159.375 95.7255C159.356 95.749 159.338 95.7776 159.329 95.8128L159.329 95.8129ZM151.091 101.518C151.057 101.514 151.024 101.521 150.992 101.534C150.284 100.508 149.756 99.4082 149.415 98.2878L155.009 98.7784L157.336 102.068L151.091 101.518ZM151.325 101.991L157.675 102.547L159.737 105.461C156.174 105.87 153.414 104.73 151.325 101.991L151.325 101.991ZM160.113 105.204L158.053 102.288L159.7 96.191C161.584 99.0705 161.722 102.027 160.113 105.204L160.113 105.204ZM156.439 92.8672C156.438 92.8677 156.438 92.8677 156.438 92.8694L155.042 98.0349L152.715 94.7439L153.593 91.5007C154.581 91.8009 155.543 92.2616 156.439 92.8671L156.439 92.8672Z" fill="#FECB06"/>
<path opacity="0.3" d="M194.442 168.909C194.439 168.92 194.432 168.932 194.431 168.942C194.431 168.946 194.429 168.947 194.429 168.951C194.429 168.954 194.43 168.957 194.429 168.958C194.429 168.969 194.43 168.979 194.43 168.991C194.431 169.004 194.43 169.017 194.434 169.029C194.436 169.036 194.438 169.041 194.439 169.048C194.439 169.05 194.438 169.053 194.439 169.054C194.853 170.224 195.53 171.29 196.402 172.212C196.406 172.218 196.409 172.226 196.414 172.23C196.42 172.238 196.43 172.242 196.438 172.249C198.159 174.052 200.633 175.291 203.415 175.627C207.263 176.09 210.362 174.655 212.631 171.37L216.035 171.781C216.158 171.796 216.273 171.706 216.289 171.582C216.301 171.485 216.251 171.394 216.169 171.353C216.146 171.341 216.121 171.334 216.094 171.33L212.691 170.921C211.78 168.431 210.3 166.652 208.265 165.612C207.258 165.097 206.118 164.763 204.845 164.609C200.625 164.101 196.553 165.768 194.469 168.853C194.467 168.856 194.468 168.858 194.465 168.861L194.457 168.877C194.449 168.885 194.446 168.897 194.442 168.909L194.442 168.909ZM197.245 166.742L198.865 169.254L195.066 168.797C195.661 167.999 196.398 167.305 197.245 166.742L197.245 166.742ZM195.008 169.249L198.808 169.706L196.597 171.757C195.918 171.009 195.381 170.163 195.008 169.249L195.008 169.249ZM196.909 172.083L199.395 169.778L203.398 170.259L199.44 173.932C198.486 173.432 197.633 172.808 196.909 172.083L196.909 172.083ZM204.68 165.142L208.047 170.361L204.044 169.879L201.027 165.202C202.185 164.97 203.408 164.912 204.647 165.048C204.651 165.079 204.66 165.111 204.68 165.142L204.68 165.142ZM203.394 175.072C203.369 175.094 203.352 175.124 203.339 175.156C202.103 174.992 200.932 174.646 199.871 174.148L203.987 170.331L207.99 170.812L203.394 175.072ZM203.903 175.215L208.573 170.882L212.12 171.308C210.035 174.223 207.338 175.504 203.903 175.215L203.903 175.215ZM212.181 170.857L208.634 170.428L205.21 165.12C208.612 165.655 210.901 167.534 212.181 170.857L212.181 170.857ZM200.555 165.308C200.554 165.309 200.554 165.309 200.556 165.31L203.457 169.808L199.452 169.326L197.632 166.501C198.517 165.97 199.504 165.566 200.555 165.308L200.555 165.308Z" fill="#FECB06"/>
<path opacity="0.3" d="M353.864 191.818C353.871 191.826 353.878 191.838 353.886 191.844C353.889 191.847 353.888 191.849 353.892 191.851C353.895 191.853 353.897 191.854 353.898 191.855C353.907 191.86 353.917 191.865 353.927 191.872C353.938 191.878 353.949 191.886 353.961 191.889C353.968 191.891 353.973 191.892 353.979 191.895C353.981 191.895 353.983 191.898 353.985 191.898C355.197 192.171 356.46 192.166 357.706 191.92C357.714 191.92 357.721 191.922 357.728 191.92C357.737 191.918 357.747 191.913 357.757 191.909C360.201 191.415 362.569 189.983 364.335 187.811C366.776 184.803 367.211 181.42 365.636 177.751L367.798 175.093C367.876 174.997 367.861 174.852 367.765 174.772C367.689 174.71 367.585 174.705 367.506 174.751C367.484 174.765 367.465 174.782 367.447 174.803L365.288 177.462C362.693 176.906 360.398 177.21 358.433 178.376C357.46 178.953 356.569 179.739 355.76 180.733C353.083 184.03 352.326 188.36 353.83 191.765C353.832 191.768 353.834 191.769 353.835 191.773L353.844 191.788C353.846 191.799 353.856 191.808 353.864 191.818L353.864 191.818ZM353.52 188.294L356.512 188.262L354.101 191.231C353.741 190.303 353.547 189.31 353.52 188.294L353.52 188.294ZM354.453 191.52L356.864 188.551L357.424 191.513C356.428 191.689 355.426 191.692 354.453 191.52L354.453 191.52ZM357.867 191.422L357.238 188.093L359.777 184.965L360.781 190.268C359.85 190.808 358.866 191.197 357.867 191.423L357.867 191.422ZM356.124 181.156L362.34 181.089L359.8 184.217L354.23 184.277C354.65 183.174 355.252 182.109 356.028 181.135C356.055 181.147 356.088 181.157 356.124 181.156L356.124 181.156ZM363.853 187.532C363.859 187.566 363.875 187.596 363.895 187.623C363.098 188.582 362.182 189.387 361.194 190.019L360.152 184.506L362.692 181.379L363.853 187.532ZM364.246 187.179L363.062 180.922L365.312 178.151C366.671 181.466 366.32 184.428 364.245 187.179L364.246 187.179ZM364.962 177.859L362.71 180.629L356.388 180.697C358.653 178.105 361.465 177.172 364.962 177.859L364.962 177.859ZM354.068 184.732C354.069 184.733 354.069 184.733 354.071 184.732L359.427 184.676L356.885 187.804L353.522 187.839C353.544 186.807 353.727 185.758 354.068 184.732L354.068 184.732Z" fill="#FECB06"/>
<path opacity="0.3" d="M213.023 6.80095C213.017 6.81003 213.008 6.82055 213.004 6.8295C213.003 6.83332 213.001 6.83345 212.999 6.83727C212.998 6.84109 212.998 6.84359 212.997 6.8449C212.995 6.85505 212.993 6.86519 212.99 6.87665C212.988 6.8893 212.983 6.90207 212.983 6.9146C212.984 6.92211 212.984 6.92712 212.983 6.93344C212.983 6.93595 212.981 6.93858 212.982 6.93977C213.069 8.17742 213.438 9.38471 214.033 10.5055C214.035 10.5129 214.036 10.5204 214.04 10.5265C214.044 10.535 214.052 10.5422 214.058 10.5506C215.236 12.7463 217.292 14.5982 219.884 15.6609C223.47 17.1291 226.839 16.5697 229.902 14.0056L233.073 15.3064C233.188 15.3533 233.323 15.2977 233.371 15.1824C233.409 15.0914 233.384 14.991 233.317 14.9291C233.297 14.9113 233.275 14.8986 233.25 14.8873L230.079 13.5891C229.863 10.9464 228.911 8.83859 227.226 7.29536C226.393 6.53154 225.382 5.90575 224.196 5.41924C220.264 3.80893 215.895 4.33342 213.064 6.75372C213.062 6.75635 213.062 6.75885 213.058 6.76029L213.046 6.77344C213.036 6.77895 213.03 6.79053 213.023 6.80092L213.023 6.80095ZM216.302 5.45674L217.195 8.30895L213.654 6.85852C214.44 6.24721 215.336 5.77469 216.302 5.45674L216.302 5.45674ZM213.479 7.27879L217.02 8.72922L214.342 10.1187C213.887 9.21678 213.595 8.2591 213.479 7.27876L213.479 7.27879ZM214.556 10.5157L217.566 8.95409L221.297 10.4816L216.503 12.9704C215.717 12.2356 215.061 11.4065 214.556 10.5158L214.556 10.5157ZM223.896 5.88927L225.751 11.8148L222.021 10.2873L220.358 4.9768C221.536 5.06102 222.731 5.33008 223.888 5.79047C223.884 5.82077 223.884 5.85465 223.896 5.88921L223.896 5.88927ZM220.012 15.1198C219.981 15.1352 219.957 15.159 219.937 15.1863C218.788 14.7004 217.752 14.0559 216.862 13.2936L221.845 10.7076L225.576 12.2351L220.012 15.1198ZM220.464 15.3933L226.12 12.4575L229.425 13.8105C226.639 16.0661 223.698 16.5841 220.464 15.3932L220.464 15.3933ZM229.604 13.3916L226.299 12.0361L224.412 6.00922C227.549 7.42836 229.255 9.84864 229.605 13.3917L229.604 13.3916ZM219.875 4.95343C219.874 4.95474 219.874 4.95474 219.875 4.95594L221.474 10.0624L217.742 8.53368L216.739 5.32688C217.734 5.0501 218.793 4.92326 219.875 4.95331L219.875 4.95343Z" fill="#FECB06"/>
<path opacity="0.3" d="M96.5968 117.85C96.601 117.86 96.6043 117.874 96.6098 117.881C96.6123 117.884 96.611 117.887 96.6136 117.89C96.6161 117.893 96.6182 117.894 96.6186 117.896C96.6259 117.903 96.6331 117.911 96.6407 117.92C96.65 117.929 96.658 117.94 96.6687 117.946C96.6751 117.95 96.6793 117.953 96.684 117.957C96.6861 117.959 96.6869 117.962 96.6886 117.962C97.7635 118.584 98.9711 118.956 100.233 119.093C100.241 119.095 100.247 119.099 100.255 119.099C100.264 119.1 100.274 119.098 100.285 119.097C102.766 119.355 105.453 118.694 107.788 117.147C111.017 115.004 112.443 111.905 112.036 107.934L114.893 106.041C114.996 105.973 115.026 105.83 114.957 105.725C114.903 105.643 114.806 105.607 114.717 105.628C114.691 105.634 114.669 105.645 114.645 105.66L111.79 107.554C109.479 106.25 107.198 105.855 104.974 106.382C103.873 106.643 102.788 107.128 101.719 107.836C98.1789 110.184 96.1625 114.091 96.5806 117.789C96.5814 117.793 96.5835 117.794 96.5826 117.798L96.5868 117.815C96.5858 117.827 96.5921 117.838 96.5967 117.85L96.5968 117.85ZM97.3221 114.384L100.187 115.246L96.9985 117.36C96.9329 116.367 97.0435 115.362 97.3221 114.384L97.3221 114.384ZM97.2483 117.741L100.437 115.627L100.086 118.62C99.0833 118.491 98.1258 118.195 97.2483 117.741L97.2483 117.741ZM100.536 118.666L100.93 115.301L104.289 113.073L103.662 118.433C102.612 118.671 101.557 118.748 100.536 118.666L100.536 118.666ZM101.94 108.348L107.892 110.137L104.533 112.365L99.1995 110.761C99.9301 109.834 100.823 108.997 101.854 108.298C101.877 108.319 101.905 108.338 101.94 108.348L101.94 108.348ZM107.412 116.737C107.407 116.771 107.413 116.805 107.424 116.837C106.377 117.514 105.262 118.009 104.131 118.318L104.783 112.746L108.142 110.518L107.412 116.737ZM107.892 116.517L108.632 110.193L111.607 108.219C111.913 111.788 110.693 114.511 107.892 116.517L107.892 116.517ZM111.36 107.835L108.383 109.808L102.329 107.988C105.265 106.19 108.228 106.137 111.361 107.835L111.36 107.835ZM98.9092 111.147C98.9096 111.149 98.9096 111.149 98.9114 111.149L104.04 112.691L100.68 114.92L97.4596 113.95C97.7886 112.972 98.2773 112.025 98.9091 111.148L98.9092 111.147Z" fill="#FECB06"/>
<path opacity="0.3" d="M172.276 31.293C172.28 31.303 172.284 31.3169 172.289 31.3248C172.292 31.3279 172.29 31.33 172.293 31.3331C172.295 31.3361 172.297 31.3375 172.298 31.3392C172.305 31.3467 172.312 31.3541 172.32 31.3633C172.329 31.3721 172.337 31.383 172.348 31.3897C172.354 31.3937 172.359 31.3963 172.363 31.4007C172.365 31.4021 172.366 31.4055 172.368 31.4051C173.443 32.027 174.65 32.3991 175.912 32.5364C175.92 32.5383 175.927 32.5423 175.934 32.5424C175.943 32.5438 175.953 32.5414 175.964 32.5407C178.445 32.7982 181.132 32.1374 183.467 30.5902C186.696 28.4478 188.122 25.3482 187.715 21.3776L190.572 19.4847C190.676 19.4162 190.705 19.2735 190.637 19.1687C190.583 19.0861 190.485 19.0505 190.396 19.0716C190.371 19.0777 190.348 19.0886 190.324 19.1034L187.469 20.9976C185.158 19.6932 182.877 19.2985 180.653 19.8255C179.553 20.0864 178.467 20.571 177.398 21.279C173.858 23.6272 171.842 27.5345 172.26 31.2328C172.261 31.2362 172.263 31.2376 172.262 31.2414L172.266 31.2588C172.265 31.27 172.271 31.2814 172.276 31.2931L172.276 31.293ZM173.001 27.8277L175.866 28.6891L172.678 30.8035C172.612 29.8105 172.723 28.805 173.001 27.8276L173.001 27.8277ZM172.927 31.1845L176.116 29.0701L175.766 32.0633C174.762 31.9343 173.805 31.6386 172.927 31.1845L172.927 31.1845ZM176.215 32.1091L176.609 28.7442L179.968 26.516L179.341 31.8763C178.291 32.1141 177.236 32.1918 176.215 32.1092L176.215 32.1091ZM177.62 21.791L183.571 23.5804L180.213 25.8086L174.879 24.2046C175.609 23.2778 176.502 22.4408 177.533 21.7417C177.556 21.762 177.584 21.781 177.619 21.791L177.62 21.791ZM183.091 30.1805C183.086 30.2146 183.092 30.248 183.104 30.2802C182.057 30.9574 180.941 31.4528 179.81 31.7612L180.462 26.1896L183.821 23.9615L183.091 30.1805ZM183.571 29.9604L184.311 23.6362L187.286 21.6621C187.593 25.2314 186.372 27.9539 183.571 29.9604L183.571 29.9604ZM187.04 21.2789L184.062 23.2516L178.009 21.4312C180.944 19.6334 183.907 19.5804 187.04 21.2788L187.04 21.2789ZM174.588 24.5908C174.589 24.5926 174.589 24.5926 174.591 24.5922L179.719 26.1347L176.359 28.3633L173.139 27.3935C173.468 26.4151 173.956 25.4686 174.588 24.5909L174.588 24.5908Z" fill="#FECB06"/>
<path opacity="0.3" d="M310.869 38.0037C310.87 38.0145 310.867 38.0286 310.869 38.038C310.871 38.0418 310.869 38.0433 310.87 38.047C310.871 38.0508 310.873 38.0529 310.872 38.0546C310.876 38.0643 310.88 38.0739 310.884 38.0853C310.889 38.0969 310.892 38.1101 310.9 38.1202C310.904 38.1263 310.907 38.1304 310.91 38.1362C310.911 38.1383 310.91 38.1418 310.912 38.1421C311.673 39.1226 312.651 39.9218 313.769 40.524C313.775 40.5286 313.78 40.5347 313.786 40.5375C313.795 40.5424 313.805 40.544 313.815 40.5474C316.016 41.7195 318.755 42.1189 321.501 41.5644C325.3 40.7952 327.79 38.4607 328.911 34.6294L332.271 33.9513C332.393 33.9268 332.474 33.8057 332.45 33.6829C332.431 33.5861 332.355 33.5165 332.264 33.5025C332.238 33.4984 332.213 33.5 332.185 33.5048L328.826 34.1849C327.178 32.1069 325.213 30.8828 322.955 30.534C321.837 30.3614 320.648 30.4018 319.392 30.6554C315.226 31.4982 311.885 34.3586 310.877 37.9417C310.877 37.9452 310.878 37.9473 310.876 37.9505L310.873 37.9682C310.868 37.9782 310.869 37.9911 310.869 38.0037L310.869 38.0037ZM312.848 35.0666L315.177 36.9428L311.426 37.7014C311.74 36.7569 312.222 35.8671 312.848 35.0666L312.848 35.0666ZM311.514 38.1483L315.265 37.3897L313.811 40.0305C312.931 39.5334 312.155 38.8992 311.514 38.1483L311.514 38.1483ZM314.21 40.2419L315.844 37.2733L319.796 36.4734L317.194 41.2029C316.132 41.028 315.125 40.7029 314.21 40.2421L314.21 40.2419ZM319.403 31.2129L324.242 35.1105L320.29 35.9104L315.954 32.4171C316.98 31.8336 318.123 31.3944 319.342 31.1349C319.356 31.1622 319.375 31.1904 319.403 31.2129L319.403 31.2129ZM321.307 41.0433C321.29 41.0731 321.283 41.1064 321.281 41.1404C320.056 41.3737 318.836 41.4128 317.672 41.2728L320.378 36.3573L324.329 35.5574L321.307 41.0433ZM321.835 41.0201L324.905 35.4404L328.406 34.7316C327.344 38.1531 325.186 40.2157 321.834 41.02L321.835 41.0201ZM328.322 34.2838L324.82 34.9905L319.899 31.0261C323.297 30.4656 326.061 31.5316 328.323 34.2838L328.322 34.2838ZM315.539 32.6656C315.539 32.6674 315.539 32.6674 315.541 32.6677L319.71 36.0268L315.757 36.8264L313.139 34.7162C313.813 33.9337 314.623 33.2409 315.539 32.6656L315.539 32.6656Z" fill="#FECB06"/>
<path opacity="0.3" d="M326.622 108.979C326.614 108.986 326.602 108.993 326.596 109.001C326.594 109.004 326.591 109.004 326.589 109.007C326.587 109.01 326.586 109.013 326.585 109.014C326.58 109.023 326.575 109.032 326.568 109.042C326.563 109.053 326.554 109.064 326.551 109.076C326.549 109.084 326.548 109.088 326.545 109.094C326.545 109.097 326.541 109.098 326.542 109.1C326.265 110.309 326.265 111.571 326.506 112.817C326.506 112.825 326.504 112.832 326.506 112.839C326.508 112.848 326.513 112.857 326.517 112.867C327.002 115.311 328.427 117.681 330.596 119.453C333.597 121.903 336.983 122.35 340.661 120.791L343.314 122.959C343.41 123.038 343.556 123.024 343.636 122.928C343.699 122.852 343.704 122.748 343.658 122.67C343.644 122.647 343.627 122.628 343.606 122.61L340.952 120.444C341.518 117.853 341.223 115.56 340.063 113.593C339.489 112.619 338.705 111.726 337.713 110.915C334.422 108.228 330.09 107.456 326.675 108.946C326.672 108.948 326.672 108.95 326.668 108.95L326.652 108.959C326.641 108.962 326.632 108.971 326.622 108.979L326.622 108.979ZM330.151 108.649L330.172 111.638L327.209 109.218C328.14 108.863 329.134 108.672 330.151 108.649L330.151 108.649ZM326.918 109.569L329.881 111.989L326.915 112.537C326.742 111.542 326.743 110.54 326.918 109.569L326.918 109.569ZM327.004 112.979L330.339 112.363L333.461 114.912L328.148 115.895C327.611 114.963 327.226 113.978 327.003 112.979L327.004 112.979ZM337.288 111.277L337.332 117.485L334.21 114.937L334.171 109.373C335.273 109.797 336.337 110.402 337.31 111.18C337.297 111.208 337.287 111.24 337.288 111.277L337.288 111.277ZM330.876 118.973C330.842 118.979 330.812 118.995 330.785 119.015C329.828 118.215 329.025 117.297 328.397 116.308L333.919 115.288L337.041 117.836L330.876 118.973ZM331.229 119.367L337.496 118.207L340.262 120.465C336.938 121.81 333.974 121.448 331.229 119.366L331.229 119.367ZM340.556 120.117L337.791 117.857L337.747 111.542C340.333 113.814 341.257 116.626 340.556 120.117L340.556 120.117ZM333.716 109.21C333.714 109.21 333.714 109.21 333.715 109.212L333.752 114.562L330.629 112.012L330.607 108.653C331.64 108.678 332.69 108.865 333.716 109.209L333.716 109.21Z" fill="#FECB06"/>
<path opacity="0.3" d="M271.898 137.189C271.906 137.196 271.916 137.207 271.924 137.211C271.928 137.213 271.928 137.215 271.931 137.217C271.935 137.218 271.938 137.219 271.939 137.22C271.949 137.223 271.958 137.227 271.969 137.231C271.982 137.235 271.994 137.241 272.006 137.242C272.014 137.242 272.019 137.243 272.025 137.244C272.028 137.245 272.03 137.247 272.031 137.246C273.272 137.3 274.515 137.071 275.697 136.609C275.705 136.607 275.713 136.608 275.719 136.605C275.728 136.602 275.736 136.595 275.745 136.589C278.063 135.67 280.139 133.841 281.491 131.39C283.36 127.998 283.187 124.591 280.986 121.26L282.641 118.26C282.7 118.152 282.66 118.012 282.551 117.951C282.465 117.902 282.362 117.916 282.293 117.976C282.273 117.993 282.258 118.013 282.244 118.037L280.592 121.037C277.939 120.949 275.734 121.655 274.007 123.15C273.152 123.891 272.415 124.822 271.796 125.944C269.747 129.663 269.771 134.059 271.856 137.143C271.858 137.146 271.86 137.146 271.862 137.15L271.873 137.163C271.878 137.174 271.888 137.181 271.898 137.189L271.898 137.189ZM270.934 133.782L273.873 133.221L272.027 136.57C271.509 135.72 271.141 134.777 270.934 133.782L270.934 133.782ZM272.425 136.792L274.271 133.443L275.348 136.258C274.399 136.607 273.413 136.788 272.425 136.792L272.425 136.792ZM275.767 136.091L274.557 132.926L276.501 129.397L278.43 134.438C277.61 135.135 276.711 135.692 275.767 136.091L275.767 136.091ZM272.229 126.296L278.334 125.129L276.39 128.657L270.919 129.703C271.137 128.543 271.54 127.388 272.13 126.292C272.16 126.299 272.194 126.303 272.229 126.296L272.229 126.296ZM280.968 131.201C280.98 131.233 281 131.26 281.025 131.283C280.411 132.368 279.652 133.323 278.793 134.119L276.788 128.879L278.732 125.351L280.968 131.201ZM281.291 130.784L279.015 124.836L280.737 121.71C282.664 124.732 282.844 127.71 281.291 130.784L281.291 130.784ZM280.341 121.485L278.617 124.61L272.407 125.797C274.176 122.845 276.778 121.428 280.341 121.485L280.341 121.485ZM270.841 130.179C270.842 130.181 270.842 130.181 270.843 130.179L276.104 129.174L274.159 132.704L270.855 133.334C270.693 132.314 270.687 131.25 270.84 130.179L270.841 130.179Z" fill="#FECB06"/>
</svg>
