<svg width="86" height="117" viewBox="0 0 86 117" fill="none" xmlns="http://www.w3.org/2000/svg">
<path d="M43.9005 8.63552C39.5602 3.62293 33.4065 0.5398 26.793 0.0643958C20.1796 -0.411009 13.6481 1.76025 8.6355 6.10052C3.62291 10.4408 0.539801 16.5945 0.0643957 23.208C-0.411009 29.8215 1.76026 36.3529 6.10053 41.3655L38.9005 79.1555L76.7005 46.4255C81.7118 42.076 84.79 35.9138 85.2579 29.2947C85.7258 22.6756 83.545 16.1418 79.1955 11.1305C74.8459 6.11925 68.6839 3.04109 62.0648 2.57318C55.4457 2.10528 48.9118 4.28597 43.9005 8.63552Z" fill="#FECB06"/>
<path fill-rule="evenodd" clip-rule="evenodd" d="M26.793 0.0643958C33.4065 0.5398 39.5602 3.62293 43.9005 8.63552C48.9118 4.28597 55.4457 2.10528 62.0648 2.57318C68.6839 3.04109 74.8459 6.11925 79.1955 11.1305C83.5451 16.1418 85.7258 22.6756 85.2579 29.2947C85.1722 30.5061 84.9992 31.7021 84.7429 32.8745C84.8297 32.2964 84.8949 31.7135 84.9379 31.1269C85.404 24.7717 83.2315 18.4983 78.8983 13.6868C74.5651 8.87531 68.4261 5.91986 61.8318 5.47061C55.2376 5.02136 48.7282 7.11511 43.7358 11.2913C39.4118 6.4785 33.2811 3.51828 26.6925 3.06183C20.1038 2.60538 13.5969 4.69008 8.60309 8.85733C3.60931 13.0246 0.537775 18.933 0.064154 25.2828C0.0457526 25.5295 0.0313314 25.7761 0.0208626 26.0225C-0.0173146 25.0888 -0.00326251 24.1492 0.0643957 23.208C0.539801 16.5945 3.62291 10.4408 8.6355 6.10052C13.6481 1.76025 20.1796 -0.411009 26.793 0.0643958ZM38.7609 78.9947L38.9005 79.1555L47.7371 71.5041L38.7609 78.9947Z" fill="white" fill-opacity="0.31"/>
<g opacity="0.5">
<path opacity="0.5" d="M13.1315 74.107C12.5023 73.4443 11.6421 73.0494 10.7294 73.0043C9.8167 72.9593 8.92172 73.2675 8.23031 73.8649C7.53889 74.4624 7.10418 75.3033 7.01643 76.2128C6.92869 77.1224 7.19466 78.0308 7.75911 78.7495L12.4016 84.1219L17.7741 79.4794C18.1521 79.1824 18.466 78.8119 18.6967 78.3901C18.9275 77.9683 19.0702 77.5042 19.1164 77.0256C19.1625 76.5471 19.1111 76.0642 18.9653 75.6061C18.8194 75.1481 18.5822 74.7243 18.2679 74.3606C17.9535 73.9968 17.5687 73.7006 17.1366 73.4899C16.7045 73.2792 16.2341 73.1583 15.754 73.1346C15.2738 73.1109 14.7938 73.1848 14.3431 73.352C13.8923 73.5191 13.4802 73.7759 13.1315 74.107Z" fill="#FECB06"/>
<path opacity="0.2" d="M8.68748 74.4576C9.04038 74.152 9.45002 73.919 9.893 73.7717C10.336 73.6245 10.8036 73.566 11.2692 73.5995C11.7348 73.6331 12.1893 73.758 12.6066 73.9672C13.0239 74.1763 13.3959 74.4657 13.7014 74.8187C14.3727 74.2379 15.237 73.9293 16.1243 73.9537C17.0116 73.978 17.8577 74.3335 18.4961 74.9502C18.2279 74.5084 17.8665 74.1305 17.4372 73.8428C17.0078 73.5551 16.5209 73.3645 16.0103 73.2845C15.4997 73.2044 14.9778 73.2367 14.481 73.3792C13.9842 73.5217 13.5245 73.7709 13.134 74.1094C12.5048 73.4467 11.6445 73.0518 10.7318 73.0068C9.81914 72.9617 8.92416 73.2699 8.23275 73.8674C7.54134 74.4649 7.10662 75.3057 7.01887 76.2153C6.93113 77.1249 7.1971 78.0333 7.76155 78.7519L8.01947 79.064C7.55818 78.3442 7.3718 77.4823 7.4945 76.6362C7.61719 75.7902 8.04073 75.0167 8.68748 74.4576Z" fill="white"/>
</g>
<g opacity="0.5">
<path opacity="0.5" d="M45.2091 105.622C44.4298 105.145 43.4967 104.986 42.6034 105.179C41.7102 105.372 40.9255 105.901 40.4123 106.657C39.899 107.413 39.6968 108.338 39.8474 109.239C39.9981 110.141 40.4901 110.949 41.2213 111.497L47.0961 115.485L51.0839 109.61C51.3722 109.226 51.5795 108.786 51.6932 108.319C51.8069 107.852 51.8247 107.367 51.7454 106.893C51.6662 106.419 51.4915 105.965 51.2321 105.561C50.9727 105.156 50.6338 104.808 50.2361 104.538C49.8383 104.268 49.3899 104.082 48.918 103.99C48.4461 103.898 47.9605 103.903 47.4905 104.004C47.0206 104.106 46.5761 104.301 46.184 104.58C45.7918 104.858 45.4602 105.212 45.2091 105.622Z" fill="#FECB06"/>
<path opacity="0.2" d="M41.0072 107.112C41.269 106.725 41.6043 106.394 41.9941 106.137C42.3839 105.88 42.8205 105.703 43.2789 105.615C43.7373 105.526 44.2086 105.529 44.6658 105.623C45.123 105.718 45.5573 105.901 45.9437 106.163C46.4418 105.428 47.1968 104.906 48.0601 104.7C48.9235 104.494 49.8328 104.618 50.6091 105.049C50.2357 104.691 49.7888 104.42 49.2996 104.253C48.8104 104.086 48.2908 104.028 47.7769 104.083C47.2629 104.138 46.7672 104.304 46.3242 104.57C45.8812 104.837 45.5017 105.196 45.212 105.624C44.4328 105.147 43.4996 104.988 42.6064 105.181C41.7131 105.374 40.9284 105.903 40.4152 106.659C39.902 107.415 39.6997 108.34 39.8503 109.241C40.001 110.142 40.493 110.951 41.2242 111.499L41.5541 111.734C40.9223 111.158 40.5192 110.374 40.4187 109.525C40.3182 108.676 40.5272 107.819 41.0072 107.112Z" fill="white"/>
</g>
<g opacity="0.5">
<path opacity="0.5" d="M66.4001 84.6496C65.1708 83.3548 63.4901 82.5833 61.7069 82.4953C59.9236 82.4072 58.175 83.0094 56.8242 84.1767C55.4733 85.3441 54.6239 86.9869 54.4525 88.764C54.2811 90.5412 54.8007 92.3161 55.9036 93.7201L64.9741 104.217L75.4707 95.1462C76.2093 94.566 76.8226 93.842 77.2734 93.018C77.7242 92.1939 78.0031 91.287 78.0933 90.3521C78.1835 89.4172 78.0831 88.4737 77.7981 87.5787C77.5132 86.6837 77.0496 85.8558 76.4355 85.1451C75.8213 84.4344 75.0694 83.8557 74.2252 83.444C73.381 83.0323 72.462 82.7961 71.5238 82.7498C70.5857 82.7035 69.648 82.8479 68.7673 83.1745C67.8866 83.501 67.0813 84.0029 66.4001 84.6496Z" fill="#FECB06"/>
<path opacity="0.2" d="M57.7173 85.335C58.4068 84.738 59.2072 84.2826 60.0727 83.995C60.9382 83.7073 61.8518 83.593 62.7615 83.6585C63.6712 83.724 64.5591 83.9681 65.3744 84.3768C66.1898 84.7855 66.9166 85.3508 67.5135 86.0405C68.825 84.9058 70.5137 84.3029 72.2473 84.3505C73.9809 84.398 75.634 85.0926 76.8813 86.2975C76.3574 85.4343 75.6513 84.6959 74.8124 84.1338C73.9736 83.5716 73.0222 83.1994 72.0246 83.043C71.0271 82.8865 70.0073 82.9497 69.0367 83.2281C68.0661 83.5065 67.1679 83.9933 66.4049 84.6547C65.8247 83.916 65.1007 83.3028 64.2766 82.852C63.4526 82.4012 62.5457 82.1223 61.6108 82.0321C60.6758 81.9419 59.7323 82.0423 58.8373 82.3273C57.9423 82.6122 57.1144 83.0758 56.4038 83.6899C55.6931 84.304 55.1144 85.056 54.7027 85.9002C54.2909 86.7444 54.0548 87.6634 54.0084 88.6015C53.9621 89.5397 54.1066 90.4774 54.4332 91.3581C54.7597 92.2388 55.2615 93.0441 55.9083 93.7252L56.4122 94.335C55.5109 92.9287 55.1468 91.2446 55.3865 89.5916C55.6262 87.9386 56.4537 86.4273 57.7173 85.335Z" fill="white"/>
</g>
</svg>
