<svg width="142" height="195" viewBox="0 0 142 195" fill="none" xmlns="http://www.w3.org/2000/svg">
<path d="M73.0644 14.4069C65.8409 6.04425 55.5991 0.900567 44.5921 0.107434C33.5852 -0.6857 22.7148 2.93669 14.3722 10.1777C6.02968 17.4187 0.8984 27.6852 0.107175 38.7187C-0.68405 49.7522 2.92964 60.6488 10.1532 69.0115L64.7429 132.058L127.654 77.4533C135.994 70.1968 141.118 59.9163 141.896 48.8734C142.675 37.8306 139.046 26.9299 131.807 18.5694C124.567 10.2089 114.312 5.07355 103.296 4.29293C92.2793 3.51231 81.4048 7.15042 73.0644 14.4069Z" fill="#FECB06"/>
<path fill-rule="evenodd" clip-rule="evenodd" d="M44.5921 0.107434C55.5991 0.900567 65.8409 6.04425 73.0644 14.4069C81.4048 7.15042 92.2793 3.51231 103.296 4.29293C114.312 5.07355 124.567 10.2089 131.807 18.5694C139.046 26.9299 142.675 37.8306 141.896 48.8734C141.754 50.8942 141.466 52.8895 141.039 54.8454C141.184 53.881 141.292 52.9086 141.364 51.9301C142.14 41.3274 138.524 30.8613 131.312 22.8342C124.1 14.807 113.883 9.8763 102.908 9.1268C91.9329 8.3773 81.0993 11.8704 72.7902 18.8376C65.5938 10.8083 55.3904 5.86967 44.4248 5.10816C33.4592 4.34664 22.6295 7.82462 14.3183 14.777C6.00705 21.7293 0.895031 31.5866 0.106775 42.1802C0.0761489 42.5918 0.0521471 43.0032 0.0347236 43.4143C-0.0288174 41.8564 -0.00543081 40.289 0.107175 38.7187C0.8984 27.6852 6.02968 17.4187 14.3722 10.1777C22.7148 2.93669 33.5852 -0.6857 44.5921 0.107434ZM64.5105 131.79L64.7429 132.058L79.4498 119.293L64.5105 131.79Z" fill="white" fill-opacity="0.31"/>
<g opacity="0.5">
<path opacity="0.5" d="M21.8552 123.635C20.8081 122.53 19.3763 121.871 17.8573 121.796C16.3383 121.721 14.8487 122.235 13.698 123.232C12.5473 124.228 11.8238 125.631 11.6777 127.149C11.5317 128.666 11.9744 130.182 12.9138 131.381L20.6404 140.344L29.5819 132.598C30.2111 132.103 30.7335 131.485 31.1175 130.781C31.5015 130.077 31.7391 129.303 31.8159 128.505C31.8927 127.706 31.8072 126.901 31.5644 126.136C31.3217 125.372 30.9268 124.665 30.4037 124.058C29.8805 123.452 29.24 122.957 28.5209 122.606C27.8017 122.254 27.0189 122.053 26.2198 122.013C25.4207 121.974 24.6218 122.097 23.8716 122.376C23.1214 122.655 22.4355 123.083 21.8552 123.635Z" fill="#FECB06"/>
<path opacity="0.2" d="M14.4587 124.221C15.0461 123.711 15.7278 123.322 16.4651 123.076C17.2024 122.831 17.9807 122.733 18.7556 122.789C19.5305 122.845 20.2868 123.053 20.9814 123.402C21.6759 123.751 22.2951 124.234 22.8035 124.823C23.9207 123.854 25.3592 123.339 26.8359 123.38C28.3127 123.421 29.7208 124.014 30.7834 125.043C30.337 124.305 29.7356 123.675 29.021 123.195C28.3065 122.715 27.496 122.397 26.6463 122.263C25.7965 122.13 24.9279 122.184 24.101 122.422C23.2742 122.659 22.5091 123.075 21.8591 123.64C20.8119 122.534 19.3802 121.875 17.8612 121.8C16.3422 121.725 14.8527 122.239 13.7019 123.236C12.5512 124.233 11.8277 125.636 11.6816 127.153C11.5356 128.671 11.9783 130.186 12.9177 131.385L13.347 131.906C12.5792 130.705 12.269 129.267 12.4732 127.855C12.6774 126.444 13.3823 125.153 14.4587 124.221Z" fill="white"/>
</g>
<g opacity="0.5">
<path opacity="0.5" d="M75.2454 176.217C73.9485 175.421 72.3952 175.157 70.9079 175.479C69.4207 175.802 68.1139 176.685 67.2588 177.947C66.4038 179.208 66.0662 180.75 66.3163 182.253C66.5663 183.756 67.3847 185.105 68.6015 186.018L78.3783 192.664L85.0222 182.862C85.5025 182.22 85.8479 181.488 86.0376 180.709C86.2273 179.93 86.2573 179.12 86.1258 178.329C85.9942 177.539 85.7039 176.783 85.2723 176.108C84.8408 175.434 84.277 174.854 83.615 174.404C82.9531 173.954 82.2068 173.643 81.4212 173.491C80.6357 173.338 79.8272 173.347 79.0448 173.516C78.2624 173.686 77.5223 174.012 76.8692 174.477C76.2162 174.941 75.6637 175.533 75.2454 176.217Z" fill="#FECB06"/>
<path opacity="0.2" d="M68.2483 178.702C68.6844 178.057 69.2429 177.505 69.8919 177.076C70.541 176.647 71.2678 176.351 72.0309 176.203C72.794 176.056 73.5785 176.061 74.3395 176.217C75.1005 176.374 75.8231 176.679 76.4661 177.115C77.2958 175.89 78.5529 175.019 79.9902 174.675C81.4275 174.33 82.9409 174.537 84.2326 175.254C83.6114 174.658 82.8678 174.206 82.0537 173.928C81.2396 173.651 80.3747 173.554 79.5192 173.646C78.6638 173.738 77.8384 174.016 77.1008 174.46C76.3632 174.904 75.7311 175.504 75.2487 176.218C73.952 175.423 72.3989 175.159 70.9119 175.481C69.4249 175.803 68.1183 176.687 67.2634 177.948C66.4084 179.209 66.0709 180.751 66.3209 182.254C66.5709 183.756 67.3892 185.104 68.6059 186.017L69.1548 186.408C68.1035 185.449 67.4332 184.141 67.2667 182.726C67.1003 181.31 67.4488 179.882 68.2483 178.702Z" fill="white"/>
</g>
<g opacity="0.5">
<path opacity="0.5" d="M110.51 141.224C108.464 139.064 105.667 137.777 102.699 137.63C99.7314 137.483 96.8212 138.488 94.5729 140.435C92.3246 142.383 90.911 145.123 90.6257 148.088C90.3404 151.053 91.2052 154.014 93.0407 156.357L108.137 173.868L125.607 158.736C126.836 157.768 127.857 156.56 128.607 155.185C129.357 153.81 129.821 152.297 129.971 150.738C130.122 149.178 129.954 147.604 129.48 146.111C129.006 144.617 128.234 143.236 127.212 142.051C126.19 140.865 124.939 139.899 123.534 139.213C122.129 138.526 120.599 138.132 119.038 138.054C117.476 137.977 115.916 138.218 114.45 138.763C112.984 139.308 111.644 140.145 110.51 141.224Z" fill="#FECB06"/>
<path opacity="0.2" d="M96.0598 142.367C97.2074 141.371 98.5394 140.611 99.9799 140.132C101.42 139.652 102.941 139.461 104.455 139.57C105.969 139.679 107.447 140.087 108.804 140.769C110.161 141.45 111.37 142.394 112.364 143.544C114.547 141.651 117.357 140.645 120.242 140.725C123.128 140.804 125.879 141.963 127.955 143.973C127.083 142.533 125.908 141.301 124.512 140.363C123.115 139.425 121.532 138.804 119.872 138.543C118.211 138.282 116.514 138.388 114.899 138.852C113.283 139.317 111.789 140.129 110.519 141.232C109.553 140 108.348 138.977 106.977 138.225C105.605 137.473 104.096 137.007 102.54 136.857C100.984 136.706 99.4135 136.874 97.9239 137.349C96.4344 137.825 95.0565 138.598 93.8737 139.623C92.6909 140.647 91.7277 141.902 91.0425 143.31C90.3573 144.719 89.9642 146.252 89.8871 147.817C89.81 149.382 90.0505 150.946 90.594 152.416C91.1374 153.885 91.9726 155.228 93.049 156.365L93.8877 157.382C92.3877 155.036 91.7816 152.226 92.1806 149.469C92.5795 146.711 93.9568 144.19 96.0598 142.367Z" fill="white"/>
</g>
</svg>
