<svg width="16" height="10" viewBox="0 0 16 10" fill="none" xmlns="http://www.w3.org/2000/svg">
<g clip-path="url(#clip0_28236_58183)">
<path d="M16 0H0V10H16V0Z" fill="white"/>
<path d="M16 0H0V3H16V0Z" fill="black"/>
<path d="M16 3.5H0V6.5H16V3.5Z" fill="#BB0000"/>
<path d="M16 7H0V10H16V7Z" fill="#006600"/>
<path d="M6.09493 7.96875L6.2104 8.03125L9.32459 2.97444C9.50672 2.92869 9.60672 2.76631 9.70672 2.60393C9.77339 2.49567 10.0401 2.06266 10.1556 1.5C9.69365 1.87516 9.42698 2.30817 9.36031 2.41643C9.26031 2.57881 9.16031 2.74119 9.20912 2.91194L6.09493 7.96875Z" fill="black"/>
<path d="M6.09493 7.96875L6.2104 8.03125L9.32459 2.97444C9.50672 2.92869 9.60672 2.76631 9.70672 2.60393C9.77339 2.49567 10.0401 2.06266 10.1556 1.5C9.69365 1.87516 9.42698 2.30817 9.36031 2.41643C9.26031 2.57881 9.16031 2.74119 9.20912 2.91194L6.09493 7.96875Z" fill="white"/>
<path d="M6.7334 6.5C6.9334 7 7.60007 8 8.00007 8C8.40007 8 9.06673 7 9.26673 6.5V3.5C9.06673 3 8.40007 2 8.00007 2C7.60007 2 6.9334 3 6.7334 3.5V6.5Z" fill="#BB0000"/>
<path d="M9.26693 6.5C9.46693 6 9.60026 5.5 9.60026 5C9.60026 4.5 9.46693 4 9.26693 3.5C9.06693 4 8.93359 4.5 8.93359 5C8.93359 5.5 9.06693 6 9.26693 6.5Z" fill="black"/>
<path d="M8.00007 5.375C8.14734 5.375 8.26673 5.20711 8.26673 5C8.26673 4.79289 8.14734 4.625 8.00007 4.625C7.85279 4.625 7.7334 4.79289 7.7334 5C7.7334 5.20711 7.85279 5.375 8.00007 5.375Z" fill="white"/>
<path d="M8.06689 5.36572C8.06689 5.36572 8.33356 5.86572 8.33356 6.67822C8.33356 7.49072 8.06689 7.99072 8.06689 7.99072V5.36572Z" fill="white"/>
</g>
<defs>
<clipPath id="clip0_28236_58183">
<rect width="16" height="10" fill="white"/>
</clipPath>
</defs>
</svg>
