<svg width="24" height="24" viewBox="0 0 24 24" fill="none" xmlns="http://www.w3.org/2000/svg">
<path d="M11.9786 17.175C15.1259 17.175 18.1038 15.4822 20.1481 12.5299C20.2281 12.4139 20.2281 12.2609 20.1481 12.1458C18.1038 9.19267 15.1261 7.5 11.9786 7.5C8.83109 7.5 5.85344 9.19364 3.80999 12.1458C3.73 12.2618 3.73 12.4147 3.80999 12.5299C5.85344 15.4812 8.83109 17.175 11.9786 17.175ZM11.9786 8.175C14.8334 8.175 17.5465 9.68936 19.4572 12.3375C17.5464 14.9857 14.8323 16.5 11.9786 16.5C9.12381 16.5 6.41076 14.9865 4.50096 12.3375C6.40995 9.68857 9.12404 8.175 11.9786 8.175Z" fill="#1D1F22"/>
<path d="M11.978 15.9619C13.9775 15.9619 15.6034 14.3359 15.6034 12.3364C15.6034 10.3378 13.9774 8.71191 11.978 8.71191C9.97852 8.71191 8.35254 10.3379 8.35254 12.3373C8.35254 14.336 9.97852 15.9619 11.978 15.9619ZM11.978 9.38669C13.6048 9.38669 14.9284 10.7103 14.9284 12.3371C14.9284 13.9631 13.6048 15.2866 11.978 15.2866C10.3512 15.2866 9.02754 13.9639 9.02754 12.3371C9.02754 10.7103 10.3512 9.38669 11.978 9.38669Z" fill="#1D1F22"/>
<line x1="3.30373" y1="5.60282" x2="20.3037" y2="18.6028" stroke="black"/>
</svg>
