<svg width="16" height="18" viewBox="0 0 16 18" fill="none" xmlns="http://www.w3.org/2000/svg">
<path fill-rule="evenodd" clip-rule="evenodd" d="M9.43973 17.3996H13.0397C14.2327 17.3996 15.1997 16.3739 15.1997 15.1087V2.89052C15.1997 1.62528 14.2327 0.599609 13.0397 0.599609H9.43973C9.04208 0.599609 8.71973 0.941501 8.71973 1.36325C8.71973 1.78499 9.04208 2.12688 9.43973 2.12688H13.0397C13.4374 2.12688 13.7597 2.46877 13.7597 2.89052V15.1087C13.7597 15.5304 13.4374 15.8723 13.0397 15.8723H9.43973C9.04208 15.8723 8.71973 16.2142 8.71973 16.636C8.71973 17.0577 9.04208 17.3996 9.43973 17.3996ZM6.77065 11.5142C6.48947 11.8124 6.48947 12.2959 6.77065 12.5941C7.05183 12.8924 7.5077 12.8924 7.78888 12.5941L10.6649 9.54379C10.6806 9.52745 10.6955 9.51037 10.7097 9.49258C10.7495 9.44279 10.7823 9.38886 10.8081 9.33226C10.854 9.23171 10.8798 9.11885 10.8798 8.99961C10.8798 8.87624 10.8522 8.7597 10.8032 8.65655C10.7811 8.60984 10.7541 8.56504 10.7224 8.52298C10.7042 8.49889 10.6847 8.47599 10.6639 8.45441L7.78888 5.4051C7.5077 5.10688 7.05183 5.10688 6.77065 5.4051C6.48947 5.70332 6.48947 6.18683 6.77065 6.48505L8.42152 8.23598H1.5198C1.12216 8.23598 0.799805 8.57787 0.799805 8.99961C0.799805 9.42136 1.12216 9.76325 1.5198 9.76325H8.42154L6.77065 11.5142Z" fill="#1D1F22"/>
<mask id="mask0_26042_904" style="mask-type:alpha" maskUnits="userSpaceOnUse" x="0" y="0" width="16" height="18">
<path fill-rule="evenodd" clip-rule="evenodd" d="M9.43973 17.3996H13.0397C14.2327 17.3996 15.1997 16.3739 15.1997 15.1087V2.89052C15.1997 1.62528 14.2327 0.599609 13.0397 0.599609H9.43973C9.04208 0.599609 8.71973 0.941501 8.71973 1.36325C8.71973 1.78499 9.04208 2.12688 9.43973 2.12688H13.0397C13.4374 2.12688 13.7597 2.46877 13.7597 2.89052V15.1087C13.7597 15.5304 13.4374 15.8723 13.0397 15.8723H9.43973C9.04208 15.8723 8.71973 16.2142 8.71973 16.636C8.71973 17.0577 9.04208 17.3996 9.43973 17.3996ZM6.77065 11.5142C6.48947 11.8124 6.48947 12.2959 6.77065 12.5941C7.05183 12.8924 7.5077 12.8924 7.78888 12.5941L10.6649 9.54379C10.6806 9.52745 10.6955 9.51037 10.7097 9.49258C10.7495 9.44279 10.7823 9.38886 10.8081 9.33226C10.854 9.23171 10.8798 9.11885 10.8798 8.99961C10.8798 8.87624 10.8522 8.7597 10.8032 8.65655C10.7811 8.60984 10.7541 8.56504 10.7224 8.52298C10.7042 8.49889 10.6847 8.47599 10.6639 8.45441L7.78888 5.4051C7.5077 5.10688 7.05183 5.10688 6.77065 5.4051C6.48947 5.70332 6.48947 6.18683 6.77065 6.48505L8.42152 8.23598H1.5198C1.12216 8.23598 0.799805 8.57787 0.799805 8.99961C0.799805 9.42136 1.12216 9.76325 1.5198 9.76325H8.42154L6.77065 11.5142Z" fill="white"/>
</mask>
<g mask="url(#mask0_26042_904)">
</g>
</svg>
