<svg width="24" height="24" viewBox="0 0 24 24" fill="none" xmlns="http://www.w3.org/2000/svg">
<path fill-rule="evenodd" clip-rule="evenodd" d="M13.4397 20.4H17.0397C18.2327 20.4 19.1997 19.3743 19.1997 18.1091V5.89088C19.1997 4.62565 18.2327 3.59998 17.0397 3.59998H13.4397C13.0421 3.59998 12.7197 3.94187 12.7197 4.36361C12.7197 4.78536 13.0421 5.12725 13.4397 5.12725H17.0397C17.4374 5.12725 17.7597 5.46914 17.7597 5.89088V18.1091C17.7597 18.5308 17.4374 18.8727 17.0397 18.8727H13.4397C13.0421 18.8727 12.7197 19.2146 12.7197 19.6363C12.7197 20.0581 13.0421 20.4 13.4397 20.4ZM10.7706 14.5146C10.4895 14.8128 10.4895 15.2963 10.7706 15.5945C11.0518 15.8927 11.5077 15.8927 11.7889 15.5945L14.6649 12.5442C14.6806 12.5278 14.6955 12.5107 14.7097 12.493C14.7495 12.4432 14.7823 12.3892 14.8081 12.3326C14.854 12.2321 14.8798 12.1192 14.8798 12C14.8798 11.8766 14.8522 11.7601 14.8032 11.6569C14.7811 11.6102 14.7541 11.5654 14.7224 11.5233C14.7042 11.4993 14.6847 11.4764 14.6639 11.4548L11.7889 8.40547C11.5077 8.10725 11.0518 8.10725 10.7706 8.40547C10.4895 8.70369 10.4895 9.1872 10.7706 9.48541L12.4215 11.2363H5.5198C5.12216 11.2363 4.7998 11.5782 4.7998 12C4.7998 12.4217 5.12216 12.7636 5.5198 12.7636H12.4215L10.7706 14.5146Z" fill="#1D1F22"/>
<mask id="mask0_25125_20943" style="mask-type:alpha" maskUnits="userSpaceOnUse" x="4" y="3" width="16" height="18">
<path fill-rule="evenodd" clip-rule="evenodd" d="M13.4397 20.4H17.0397C18.2327 20.4 19.1997 19.3743 19.1997 18.1091V5.89088C19.1997 4.62565 18.2327 3.59998 17.0397 3.59998H13.4397C13.0421 3.59998 12.7197 3.94187 12.7197 4.36361C12.7197 4.78536 13.0421 5.12725 13.4397 5.12725H17.0397C17.4374 5.12725 17.7597 5.46914 17.7597 5.89088V18.1091C17.7597 18.5308 17.4374 18.8727 17.0397 18.8727H13.4397C13.0421 18.8727 12.7197 19.2146 12.7197 19.6363C12.7197 20.0581 13.0421 20.4 13.4397 20.4ZM10.7706 14.5146C10.4895 14.8128 10.4895 15.2963 10.7706 15.5945C11.0518 15.8927 11.5077 15.8927 11.7889 15.5945L14.6649 12.5442C14.6806 12.5278 14.6955 12.5107 14.7097 12.493C14.7495 12.4432 14.7823 12.3892 14.8081 12.3326C14.854 12.2321 14.8798 12.1192 14.8798 12C14.8798 11.8766 14.8522 11.7601 14.8032 11.6569C14.7811 11.6102 14.7541 11.5654 14.7224 11.5233C14.7042 11.4993 14.6847 11.4764 14.6639 11.4548L11.7889 8.40547C11.5077 8.10725 11.0518 8.10725 10.7706 8.40547C10.4895 8.70369 10.4895 9.1872 10.7706 9.48541L12.4215 11.2363H5.5198C5.12216 11.2363 4.7998 11.5782 4.7998 12C4.7998 12.4217 5.12216 12.7636 5.5198 12.7636H12.4215L10.7706 14.5146Z" fill="white"/>
</mask>
<g mask="url(#mask0_25125_20943)">
</g>
</svg>
