<svg width="32" height="32" viewBox="0 0 32 32" fill="none" xmlns="http://www.w3.org/2000/svg">
<path d="M11.3043 28.1219L11.304 28.1218C10.9898 28.0371 10.7598 27.7741 10.7165 27.4528C10.5581 26.3674 10.3583 24.3542 10.7651 22.6344L12.201 16.5488L11.3043 28.1219ZM11.3043 28.1219C11.3723 28.1401 11.4433 28.15 11.5151 28.15C11.7711 28.15 12.0138 28.0257 12.19 27.8017L12.1902 27.8014C12.8324 26.9806 13.9903 25.3421 14.4537 23.6629L14.4538 23.6625C14.5376 23.3558 14.8003 22.3258 15.012 21.4931C15.7192 22.0086 16.6699 22.328 17.6211 22.328C21.7955 22.328 24.7801 18.5407 24.7801 13.411C24.7801 9.6861 21.6689 5.85098 16.4931 5.85098C10.706 5.85098 7.22207 9.99844 7.22207 14.036C7.22207 15.9865 7.84975 17.6129 9.01544 18.5927C9.37024 18.8915 9.85012 18.9976 10.3015 18.8747L10.3018 18.8746C10.7491 18.7516 11.1083 18.4173 11.2607 17.9794C11.2607 17.9793 11.2607 17.9793 11.2607 17.9793L11.5086 17.2716L11.5089 17.2709C11.6493 16.8644 11.5829 16.4147 11.3308 16.0386C11.0256 15.5823 10.8731 15.028 10.8731 14.336C10.8731 11.8486 12.7237 9.20898 16.1611 9.20898C17.5274 9.20898 18.6178 9.59588 19.365 10.2777C20.1105 10.958 20.5301 11.9461 20.5301 13.182C20.5301 14.8199 20.1692 16.2717 19.5863 17.3085C19.0015 18.3487 18.2112 18.945 17.3561 18.945C16.9145 18.945 16.529 18.7659 16.2896 18.4638C16.0681 18.1835 15.9915 17.8167 16.085 17.4216C16.2094 16.8979 16.3754 16.3592 16.5387 15.8293L16.5514 15.7882L16.5514 15.7881L16.5582 15.7662C16.8663 14.767 17.1671 13.7918 17.1671 12.991C17.1671 12.2691 16.9434 11.653 16.5409 11.2156C16.1374 10.7772 15.5644 10.53 14.8901 10.53C13.1897 10.53 11.9141 12.2249 11.9141 14.302C11.9141 14.6608 12.2052 14.952 12.5641 14.952C12.9229 14.952 13.2141 14.6608 13.2141 14.302C13.2141 13.5928 13.4077 12.9684 13.7162 12.5254C14.0244 12.0828 14.4394 11.83 14.8901 11.83C15.1213 11.83 15.2915 11.8818 15.4184 11.958C15.5455 12.0343 15.6374 12.1401 15.7042 12.2605C15.8402 12.5057 15.8671 12.8029 15.8671 12.991C15.8671 13.2862 15.8022 13.6511 15.6983 14.0662C15.5947 14.4799 15.455 14.9333 15.3097 15.4048L15.3097 15.4049L15.2992 15.4391C15.1297 15.9905 14.9537 16.5632 14.8211 17.1213L14.8211 17.1214C14.6362 17.9013 14.7943 18.6669 15.2714 19.27C15.7629 19.8916 16.5256 20.244 17.3571 20.244C18.6568 20.244 19.7797 19.4594 20.5706 18.1949C21.3615 16.9305 21.8311 15.1732 21.8311 13.181C21.8311 11.5886 21.2759 10.2661 20.281 9.34254C19.2872 8.42001 17.8683 7.90798 16.1621 7.90798C12.4128 7.90798 9.57407 10.6696 9.57407 14.335C9.57407 15.2797 9.79432 16.0759 10.2514 16.7594L10.2514 16.7594L10.2529 16.7615C10.2596 16.7712 10.2709 16.7905 10.2776 16.8113C10.2844 16.8322 10.2824 16.8414 10.2821 16.8424C10.2821 16.8425 10.2821 16.8425 10.2821 16.8425L10.0345 17.5494L10.0343 17.55C10.0252 17.5764 10.012 17.5908 9.99985 17.6001C9.98635 17.6105 9.97097 17.6168 9.95795 17.6204C9.93795 17.6259 9.89491 17.6325 9.85239 17.597C9.00523 16.8854 8.52207 15.6297 8.52207 14.035C8.52207 11.1901 10.9804 7.14998 16.4931 7.14998C20.8792 7.14998 23.4801 10.3438 23.4801 13.41C23.4801 15.6707 22.8692 17.5781 21.8337 18.9166C20.8001 20.2525 19.3405 21.027 17.6211 21.027C17.0665 21.027 16.5439 20.8769 16.1228 20.6545C15.6987 20.4305 15.391 20.1405 15.251 19.8725L15.2505 19.8715M11.3043 28.1219L15.2505 19.8715M15.2505 19.8715C15.1243 19.6347 14.8645 19.4941 14.5975 19.5281L15.2505 19.8715ZM12.9838 16.0651C12.6341 15.9818 12.2831 16.1988 12.2011 16.5485L14.1901 20.052L14.0446 20.0153L14.0446 20.0154L14.0445 20.0157L14.0445 20.0158L14.0441 20.0172L14.0426 20.0232L14.0367 20.0464L14.0143 20.1353L13.933 20.4563C13.8651 20.7243 13.773 21.0872 13.6763 21.4668C13.4828 22.2269 13.2715 23.0513 13.1985 23.3171C12.9336 24.2787 12.3719 25.2674 11.8653 26.0275C11.7957 25.086 11.7939 23.9368 12.0301 22.9333L13.466 16.8477C13.466 16.8477 13.466 16.8476 13.466 16.8476C13.5492 16.4978 13.3332 16.1482 12.9838 16.0651Z" fill="white" stroke="white" stroke-width="0.3"/>
</svg>
