<svg width="25" height="25" viewBox="0 0 25 25" fill="none" xmlns="http://www.w3.org/2000/svg">
<path d="M1.74095 14.2439H10.7799V23.2561C10.7799 23.7186 10.9634 24.1622 11.2899 24.4892C11.6163 24.8163 12.0592 25 12.5209 25C12.9826 25 13.4254 24.8163 13.7519 24.4892C14.0784 24.1622 14.2618 23.7186 14.2618 23.2561V14.2439H23.2591C23.7208 14.2439 24.1636 14.0601 24.4901 13.7331C24.8166 13.4061 25 12.9625 25 12.5C25 12.0375 24.8166 11.5939 24.4901 11.2669C24.1636 10.9399 23.7208 10.7561 23.2591 10.7561H14.2201V1.74386C14.2201 1.28136 14.0366 0.837807 13.7101 0.510769C13.3837 0.183732 12.9408 0 12.4791 0C12.0174 0 11.5746 0.183732 11.2481 0.510769C10.9216 0.837807 10.7382 1.28136 10.7382 1.74386V10.7561H1.74095C1.27922 10.7561 0.836406 10.9399 0.509916 11.2669C0.183425 11.5939 0 12.0375 0 12.5C0 12.9625 0.183425 13.4061 0.509916 13.7331C0.836406 14.0601 1.27922 14.2439 1.74095 14.2439Z" fill="white"/>
</svg>
