<?xml version="1.0" encoding="utf-8"?>
<!-- Generator: Adobe Illustrator 25.2.3, SVG Export Plug-In . SVG Version: 6.00 Build 0)  -->
<svg version="1.1" xmlns="http://www.w3.org/2000/svg" xmlns:xlink="http://www.w3.org/1999/xlink" x="0px" y="0px"
	 viewBox="0 0 41 41" style="enable-background:new 0 0 41 41;" xml:space="preserve">
<style type="text/css">
	.st0{display:none;}
	.st1{display:inline;fill:#FFA936;}
	.st2{fill:#FFA936;}
</style>
<g id="Layer_1" class="st0">
	<path class="st1" d="M28.4,22.5c-1.4,0.1-2.5,1.3-2.4,2.7c0.1,1.4,1.3,2.5,2.7,2.4c1.4-0.1,2.5-1.3,2.4-2.7
		C31,23.5,29.8,22.4,28.4,22.5z"/>
	<path class="st1" d="M21,26.9c-1.4,0.1-2.5,1.3-2.4,2.7c0.1,1.4,1.3,2.5,2.7,2.4c1.4-0.1,2.5-1.3,2.4-2.7
		C23.6,27.8,22.4,26.8,21,26.9z"/>
	<path class="st1" d="M13,23.6c-1.4,0.1-2.5,1.3-2.4,2.7c0.1,1.4,1.3,2.5,2.7,2.4c1.4-0.1,2.5-1.3,2.4-2.7
		C15.7,24.5,14.4,23.5,13,23.6z"/>
	<path class="st1" d="M11.2,16c-1.4,0.1-2.5,1.3-2.4,2.7c0.1,1.4,1.3,2.5,2.7,2.4c1.4-0.1,2.5-1.3,2.4-2.7
		C13.8,17,12.6,15.9,11.2,16z"/>
	<path class="st1" d="M15.9,9.3c-1.4,0.1-2.5,1.3-2.4,2.7c0.1,1.4,1.3,2.5,2.7,2.4c1.4-0.1,2.5-1.3,2.4-2.7
		C18.5,10.2,17.3,9.2,15.9,9.3z"/>
	<path class="st1" d="M21.1,38.4c2.4-0.1,4.8-0.6,7-1.7s4.2-2.5,5.8-4.3c1.6-1.8,2.9-3.9,3.6-6.2c0.8-2.3,1.1-4.7,0.9-7.1
		c-0.1-0.9-0.4-1.9-0.8-2.7c-0.5-0.8-1.1-1.5-1.9-2c-0.8-0.5-1.7-0.9-2.6-1c-0.9-0.1-1.9,0-2.8,0.3l-1.4,0.5
		c-0.6,0.2-1.2,0.3-1.7,0.2c-0.6-0.1-1.1-0.3-1.6-0.6c-0.5-0.3-0.9-0.8-1.2-1.3s-0.5-1.1-0.5-1.7l-0.3-4.8c-0.1-1-0.5-2-1.3-2.6
		c-0.8-0.7-1.8-1-2.8-0.9c-2.4,0.2-4.8,0.8-6.9,1.9C10.2,5.6,8.3,7.1,6.7,9c-1.5,1.9-2.7,4-3.4,6.3c-0.7,2.3-0.9,4.7-0.7,7.1
		c0.5,4.5,2.7,8.6,6.1,11.6C12.2,37,16.6,38.6,21.1,38.4z M8.7,10.6c1.3-1.6,3-2.9,4.8-3.8c1.8-0.9,3.9-1.5,5.9-1.6
		c0.3,0,0.7,0.1,0.9,0.3s0.4,0.5,0.4,0.9l0.3,4.8c0.1,1.7,0.9,3.3,2.2,4.4c1.3,1.1,3,1.7,4.7,1.6c0.6,0,1.1-0.2,1.7-0.3l1.4-0.5
		c0.5-0.2,1.1-0.2,1.6-0.2c0.6,0.1,1.1,0.3,1.5,0.6c0.5,0.3,0.8,0.7,1.1,1.2c0.3,0.5,0.4,1,0.5,1.6c0.1,2.1-0.1,4.1-0.8,6.1
		c-0.7,2-1.7,3.8-3.1,5.3c-1.4,1.5-3.1,2.8-5,3.6c-1.9,0.9-3.9,1.4-6,1.4c-3.9,0.1-7.6-1.3-10.5-3.8c-2.9-2.5-4.8-6.1-5.3-9.9
		C5,20.1,5.2,18,5.8,16C6.4,14.1,7.4,12.2,8.7,10.6L8.7,10.6z"/>
</g>
<g id="Layer_2">
	<path class="st2" d="M20.5,2.5c-2.4,0-4.5,0.9-6.3,2.7c-1.8,1.8-2.7,3.9-2.7,6.3V16c-1.3,0-2.3,0.4-3.2,1.3C7.4,18.2,7,19.2,7,20.5
		V34c0,1.3,0.4,2.3,1.3,3.2c0.9,0.9,1.9,1.3,3.2,1.3h18c1.3,0,2.3-0.4,3.2-1.3S34,35.3,34,34V20.5c0-1.3-0.4-2.3-1.3-3.2
		c-0.9-0.9-1.9-1.3-3.2-1.3v-4.5c0-2.4-0.9-4.5-2.7-6.3C25,3.4,22.9,2.5,20.5,2.5z M31,20.5V34c0,1-0.5,1.5-1.5,1.5h-18
		c-1,0-1.5-0.5-1.5-1.5V20.5c0-1,0.5-1.5,1.5-1.5h18C30.5,19,31,19.5,31,20.5z M14.5,16v-4.5c0-1.6,0.6-3,1.8-4.2
		c1.2-1.2,2.6-1.8,4.2-1.8s3,0.6,4.2,1.8c1.2,1.2,1.8,2.6,1.8,4.2V16H14.5z M20.5,20.5c-1.3,0-2.3,0.4-3.2,1.3
		C16.4,22.7,16,23.7,16,25c0,0.9,0.3,1.8,0.8,2.6c0.6,0.8,1.3,1.3,2.2,1.7V31c0,1,0.5,1.5,1.5,1.5S22,32,22,31v-1.8
		c2-0.7,3-2.1,3-4.2c0-1.3-0.4-2.3-1.3-3.2C22.8,20.9,21.8,20.5,20.5,20.5z M20.5,26.5c-1,0-1.5-0.5-1.5-1.5s0.5-1.5,1.5-1.5
		S22,24,22,25S21.5,26.5,20.5,26.5z"/>
</g>
<g id="Layer_3" class="st0">
	<path class="st1" d="M2.2,5.8v25.7l8.8-6.6c0.6-0.5,1.4-0.7,2.2-0.7h14.7c1,0,1.9-0.4,2.6-1.1c0.7-0.7,1.1-1.6,1.1-2.6V5.8
		c0-1-0.4-1.9-1.1-2.6c-0.7-0.7-1.6-1.1-2.6-1.1h-22c-1,0-1.9,0.4-2.6,1.1C2.6,3.9,2.2,4.9,2.2,5.8z M5.8,24.2V5.8h22v14.7H11.9
		c-0.8,0-1.6,0.3-2.2,0.7L5.8,24.2z"/>
	<path class="st1" d="M38.8,38.8V15c0-1-0.4-1.9-1.1-2.6c-0.7-0.7-1.6-1.1-2.6-1.1v20.2l-3.9-2.9c-0.6-0.5-1.4-0.7-2.2-0.7H11.3
		c0,0.5,0.1,1,0.3,1.4c0.2,0.4,0.5,0.8,0.8,1.2c0.3,0.3,0.7,0.6,1.2,0.8c0.4,0.2,0.9,0.3,1.4,0.3h12.8c0.8,0,1.6,0.3,2.2,0.7
		L38.8,38.8z"/>
</g>
<g id="Layer_4" class="st0">
	<path class="st1" d="M4.2,19.1h16.3v2.7H4.2V19.1z"/>
	<path class="st1" d="M1.5,12.3h13.6v2.7H1.5V12.3z"/>
	<path class="st1" d="M39.4,20l-4.1-9.5c-0.1-0.2-0.3-0.5-0.5-0.6c-0.2-0.1-0.5-0.2-0.7-0.2H30V6.9c0-0.4-0.1-0.7-0.4-1
		c-0.3-0.3-0.6-0.4-1-0.4H6.9v2.7h20.4v17.1c-0.6,0.4-1.2,0.8-1.6,1.4c-0.4,0.6-0.7,1.2-0.9,1.9h-8.5c-0.3-1.3-1.1-2.4-2.2-3.1
		c-1.1-0.7-2.4-1.1-3.7-0.9c-1.3,0.2-2.5,0.8-3.4,1.8c-0.9,1-1.4,2.3-1.4,3.6s0.5,2.6,1.4,3.6c0.9,1,2.1,1.6,3.4,1.8
		c1.3,0.2,2.6-0.2,3.7-0.9s1.9-1.9,2.2-3.1h8.5c0.3,1.2,1,2.2,1.9,2.9c0.9,0.7,2.1,1.1,3.3,1.1c1.2,0,2.4-0.4,3.3-1.1
		c0.9-0.7,1.6-1.8,1.9-2.9h2.9c0.4,0,0.7-0.1,1-0.4c0.3-0.3,0.4-0.6,0.4-1v-9.5C39.5,20.3,39.5,20.1,39.4,20z M11,32.7
		c-0.5,0-1.1-0.2-1.5-0.5c-0.4-0.3-0.8-0.7-1-1.2c-0.2-0.5-0.3-1-0.2-1.6c0.1-0.5,0.4-1,0.7-1.4c0.4-0.4,0.9-0.6,1.4-0.7
		c0.5-0.1,1.1-0.1,1.6,0.2c0.5,0.2,0.9,0.6,1.2,1c0.3,0.4,0.5,1,0.5,1.5c0,0.7-0.3,1.4-0.8,1.9C12.4,32.4,11.7,32.7,11,32.7z
		 M30,12.3h3.2l2.9,6.8H30V12.3z M30,32.7c-0.5,0-1.1-0.2-1.5-0.5c-0.4-0.3-0.8-0.7-1-1.2c-0.2-0.5-0.3-1-0.2-1.6
		c0.1-0.5,0.4-1,0.7-1.4c0.4-0.4,0.9-0.6,1.4-0.7c0.5-0.1,1.1-0.1,1.6,0.2c0.5,0.2,0.9,0.6,1.2,1c0.3,0.4,0.5,1,0.5,1.5
		c0,0.7-0.3,1.4-0.8,1.9C31.4,32.4,30.7,32.7,30,32.7z M36.8,28.7h-1.6c-0.3-1.2-1-2.2-1.9-2.9c-0.9-0.7-2.1-1.1-3.3-1.1v-2.7h6.8
		V28.7z"/>
</g>
</svg>
