<svg width="22" height="23" viewBox="0 0 22 23" fill="none" xmlns="http://www.w3.org/2000/svg">
<path fill-rule="evenodd" clip-rule="evenodd" d="M11.0461 21.9159H11.0415C9.20823 21.9152 7.40683 21.4552 5.80688 20.5825L0 22.1058L1.55402 16.4296C0.595424 14.7683 0.0910168 12.8839 0.0918388 10.9533C0.0942418 4.9137 5.00821 0 11.046 0C13.9763 0.0012647 16.7266 1.14203 18.7947 3.21257C20.8628 5.283 22.0012 8.0351 22 10.962C21.9976 17.0002 17.0856 21.9134 11.0461 21.9159ZM6.07602 18.5995L6.40848 18.7968C7.80635 19.6263 9.40872 20.0652 11.0425 20.0659H11.0461C16.0643 20.0659 20.1486 15.9815 20.1506 10.9613C20.1515 8.52852 19.2054 6.24109 17.4865 4.52014C15.7675 2.79919 13.4816 1.85098 11.0497 1.85013C6.02771 1.85013 1.94339 5.93408 1.9414 10.9539C1.94069 12.6743 2.42204 14.3497 3.33342 15.7992L3.54989 16.1437L2.63013 19.5034L6.07602 18.5995ZM16.1897 13.3204C16.3806 13.4126 16.5095 13.4749 16.5645 13.5668C16.6329 13.6809 16.6329 14.2289 16.405 14.8684C16.1768 15.5077 15.0833 16.0912 14.5574 16.1698C14.0859 16.2403 13.4892 16.2697 12.8335 16.0613C12.436 15.9352 11.9262 15.7668 11.2732 15.4848C8.70727 14.3768 6.97324 11.8899 6.64551 11.4199C6.62256 11.3869 6.6065 11.3639 6.59754 11.3519L6.59533 11.349C6.45049 11.1557 5.47994 9.86079 5.47994 8.52059C5.47994 7.25984 6.09924 6.59901 6.38431 6.29484C6.40384 6.274 6.4218 6.25483 6.43788 6.23726C6.68876 5.96324 6.9853 5.89474 7.16776 5.89474C7.3502 5.89474 7.53287 5.89642 7.69234 5.90443C7.71201 5.90542 7.73248 5.9053 7.75364 5.90518C7.91314 5.90424 8.11199 5.90308 8.30815 6.37427C8.38362 6.5556 8.49403 6.82441 8.61049 7.10792C8.84601 7.68132 9.10625 8.31487 9.15203 8.40655C9.22047 8.54356 9.26608 8.70333 9.17485 8.88609C9.16115 8.91349 9.14848 8.93935 9.13638 8.96406C9.06786 9.10395 9.01745 9.20685 8.90115 9.34264C8.85542 9.39604 8.80815 9.45361 8.76089 9.51117C8.66673 9.62584 8.57257 9.7405 8.49059 9.82218C8.35357 9.95866 8.21093 10.1067 8.37059 10.3808C8.53025 10.6548 9.07955 11.551 9.89322 12.2768C10.7679 13.057 11.5281 13.3867 11.9134 13.5539C11.9886 13.5865 12.0496 13.6129 12.0943 13.6353C12.3679 13.7724 12.5276 13.7494 12.6872 13.5668C12.8469 13.3842 13.3715 12.7676 13.5539 12.4936C13.7363 12.2197 13.9189 12.2653 14.1697 12.3566C14.4206 12.448 15.7663 13.1101 16.04 13.2471C16.0934 13.2739 16.1434 13.298 16.1897 13.3204Z" fill="#FDFDFD"/>
</svg>
