<svg width="6" height="6" viewBox="0 0 6 6" fill="none" xmlns="http://www.w3.org/2000/svg">
<path d="M5.70712 0.293261C5.62404 0.210189 5.48946 0.210189 5.40639 0.293261L3.00019 2.69947L0.593981 0.293261C0.510909 0.210189 0.376329 0.210189 0.293261 0.293261C0.210194 0.376334 0.210189 0.510914 0.293261 0.593982L2.69947 3.00019L0.293261 5.40639C0.210189 5.48947 0.210189 5.62405 0.293261 5.70712C0.376334 5.79018 0.510914 5.79019 0.593981 5.70712L3.00019 3.30091L5.40639 5.70712C5.48947 5.79019 5.62405 5.79019 5.70712 5.70712C5.79018 5.62404 5.79019 5.48946 5.70712 5.40639L3.30091 3.00019L5.70712 0.593982C5.79019 0.510909 5.79019 0.376329 5.70712 0.293261Z" fill="white"/>
</svg>
